<svg xmlns="http://www.w3.org/2000/svg" viewBox="0 0 110 30">
  <path d="M0 15C0 6.716 6.716 0 15 0h80c8.284 0 15 6.716 15 15s-6.716 15-15 15H15C6.716 30 0 23.284 0 15z" fill="#fff"/>
  <path d="M17.5 10.25h4.5V20h-4.5v-9.75zM23.5 7h4.75L32 20h-4.7l-.55-2.5h-3.5l-.55 2.5H18l5.5-13zm2.4 3l-1.15 5h2.3l-1.15-5zM38 10.25l-3.75 4.5 4 5.25h-5.5l-2.25-3.5v3.5h-4.5v-13h4.5v7l2-2.75H38zM47 18.5c-1 1.167-2.333 1.75-4 1.75-1.667 0-3-.583-4-1.75s-1.5-2.583-1.5-4.25.5-3.083 1.5-4.25 2.333-1.75 4-1.75c1.667 0 3 .583 4 1.75s1.5 2.583 1.5 4.25-.5 3.083-1.5 4.25zm-2.5-6.6c-.4-.6-1-.9-1.5-.9s-1.1.3-1.5.9c-.4.6-.6 1.4-.6 2.35 0 .95.2 1.75.6 2.35.4.6 1 .9 1.5.9s1.1-.3 1.5-.9c.4-.6.6-1.4.6-2.35 0-.95-.2-1.75-.6-2.35zM72 14.25c0 3.833-1.833 5.75-5.5 5.75h-8V7h7.75c3.667 0 5.5 1.917 5.5 5.75V14.25zM67.5 11c0-1.333-.75-2-2.25-2H63v7.75h2.25c1.5 0 2.25-.667 2.25-2V11zM83.5 16.25h-5V20h-4.75V7h10.5v3.25h-5.75v2.75h5V16.25z" fill="#005681"/>
</svg>